<?xml version="1.0" encoding="utf-8"?>
<!-- Generator: Adobe Illustrator 19.1.0, SVG Export Plug-In . SVG Version: 6.00 Build 0)  -->
<!DOCTYPE svg PUBLIC "-//W3C//DTD SVG 1.1//EN" "http://www.w3.org/Graphics/SVG/1.1/DTD/svg11.dtd">
<svg version="1.1" id="Layer_1" xmlns="http://www.w3.org/2000/svg" xmlns:xlink="http://www.w3.org/1999/xlink" x="0px" y="0px"
	 viewBox="0 0 87 26" style="enable-background:new 0 0 87 26;" xml:space="preserve">
<style type="text/css">
	.st0{fill:#9F9E9E;}
</style>
<g>
	<polygon class="st0" points="81.1,0 78.6,7.1 76.1,0 71,0 76.3,14.7 76.3,25.6 81.1,25.6 81.1,14.7 86.2,0 	"/>
	<polygon class="st0" points="0,25.6 13.1,25.6 13.1,20.8 4.8,20.8 4.8,15.2 10.5,15.2 10.5,10.4 4.8,10.4 4.8,4.8 13.1,4.8 13.1,0 
		0,0 	"/>
	<polygon class="st0" points="43.9,13.1 41.3,0 36.4,0 41.4,25.6 46.3,25.6 51.3,0 46.4,0 	"/>
	<path class="st0" d="M61.3,0c-4,0-7.3,3.3-7.3,7.3v10.9c0,4,3.3,7.3,7.3,7.3c4,0,7.3-3.3,7.3-7.3V7.4C68.7,3.3,65.4,0,61.3,0z
		 M63.9,18.3c0,1.4-1.1,2.5-2.5,2.5c-1.4,0-2.6-1.1-2.6-2.5V7.4c0-1.4,1.1-2.5,2.6-2.5c1.4,0,2.5,1.1,2.5,2.5V18.3z"/>
	<polygon class="st0" points="27.6,12.7 22.5,0 17.7,0 17.7,25.6 22.5,25.6 22.5,12.9 27.6,25.6 32.4,25.6 32.4,0 27.6,0 	"/>
</g>
</svg>
